{"title":"Need to Feed (2007) DVDRip","uid":8317185,"size":1283894948,"categoryP":"video","categoryS":"movies","magnet":"?xt=urn:btih:a5335034ea6c74b2a2a9542be8596cb638d5a1d9&amp;dn=Need+to+Feed+%282007%29+DVDRip&amp;tr=udp%3A%2F%2Ftracker.openbittorrent.com%3A80&amp;tr=udp%3A%2F%2Fopen.demonii.com%3A1337&amp;tr=udp%3A%2F%2Ftracker.coppersurfer.tk%3A6969&amp;tr=udp%3A%2F%2Fexodus.desync.com%3A6969","seeders":1,"leechers":0,"uploader":"RadioResearch","files":3,"time":1364613406,"description":"*******************************************************************************\n                          Need to Feed (2007) DVDRip\n*******************************************************************************\n\n-------------------------------------------------------------------------------\n                              General Information\n-------------------------------------------------------------------------------\nType.................: Movie\n\n\n\nVideo Format.........: AVI\nVideo Bitrate........: 2366\nResolution...........: 720 x 540\nColor................: 8 bit\nFPS..................: 29.970\nSource...............: DVD 4x3\nOriginal Format......: NTSC\nGenre................: Horror\nIMDb Rating..........: 3.4\nMovie Information....: http://www.imdb.com/title/tt1219701/\n\n-------------------------------------------------------------------------------\n                               Post Information\n-------------------------------------------------------------------------------\nPosted by............: RadioResearch\nPosted on............: 3/30/2013\n\n-------------------------------------------------------------------------------\n                                 Release Notes\n-------------------------------------------------------------------------------\nSEEDBOX SUPPORTED!!\n\nThe Camera cuts to two brothers (Dagwood and Nigel) walking through the snowy \nnorthern Ontario wilderness. They have been lost for 3 days, have had no water \nor food. During the night one brother freezes to death. When morning comes, \nDagwood attempts to wake his brother, there is no reaction, Nigel is dead. \nDagwood tries to carry his brother's corpse out of the forest. He comes to his \nsenses and understands his brother's fate, and what will be his as well, if he \ndoesn't act. Dying of hunger he begins to eat his brother, Nigel. The curse of \nthe Wendigo is visited upon him and Dagwood must crave human flesh for the rest \nof eternity. Now fast forward to a century later, six high school students \ndecide to do a documentary / re-enactment of the Hayes brothers/Wendigo myth for \ntheir final film project. The six are polar opposites and have been put together \nas a group for the project by their teacher. The six leave for a weekend in \nMillcreek, Becca's mother's old town. After they arrive, almost immediately, \nthey are fighting for their lives. Who's Who? What's What? Nothing is as it \nappears to be.\n\nBe warned, this is some serious schlock horror made on a CA $10k budget.  The \nopening scene is supposed to be 1905, but I swear they are wearing modern jeans \nand footgear.  No matter.  You'll laugh, you'll cry, you'll kiss 72 minutes \ngoodbye!\n\nEnjoy!\n\nRadioResearch\n\nGeneral\nComplete name                            : G:AVINeed to Feed \n(2007)needtofeed6_Title2.avi\nFormat                                   : AVI\nFormat/Info                              : Audio Video Interleave\nFormat profile                           : OpenDML\nFile size                                : 1.20 GiB\nDuration                                 : 1h 12mn\nOverall bit rate                         : 2 366 Kbps\nMovie name                               : needtofeed6\nWriting application                      : MEncoder 5.0\nWriting library                          : [= DigiArty videodll! =] \n\nVideo\nID                                       : 0\nFormat                                   : MPEG-4 Visual\nFormat profile                           : Simple@L1\nFormat settings, BVOP                    : No\nFormat settings, QPel                    : No\nFormat settings, GMC                     : No warppoints\nFormat settings, Matrix                  : Default (H.263)\nCodec ID                                 : DX50\nCodec ID/Hint                            : DivX 5\nDuration                                 : 1h 12mn\nBit rate                                 : 1 974 Kbps\nWidth                                    : 720 pixels\nHeight                                   : 540 pixels\nDisplay aspect ratio                     : 4:3\nFrame rate                               : 29.970 fps\nColor space                              : YUV\nChroma subsampling                       : 4:2:0\nBit depth                                : 8 bits\nScan type                                : Progressive\nCompression mode                         : Lossy\nBits/(Pixel*Frame)                       : 0.169\nStream size                              : 1 022 MiB (83%)\nWriting library                          : Lavc54.71.100\n\nAudio\nID                                       : 1\nFormat                                   : AC-3\nFormat/Info                              : Audio Coding 3\nMode extension                           : CM (complete main)\nFormat settings, Endianness              : Big\nCodec ID                                 : 2000\nDuration                                 : 1h 12mn\nBit rate mode                            : Constant\nBit rate                                 : 384 Kbps\nChannel(s)                               : 2 channels\nChannel positions                        : Front: L R\nSampling rate                            : 48.0 KHz\nBit depth                                : 16 bits\nCompression mode                         : Lossy\nStream size                              : 199 MiB (16%)\nAlignment                                : Split accross interleaves\nInterleave, duration                     : 500 ms (14.98 video frames)\nInterleave, preload duration             : 500 ms\n\n\n\n\n-------------------------------------------------------------------------------\nGenerated with Cool NFO Creator - http://fly.to/coolbeans\n-------------------------------------------------------------------------------\n","torrent":{"xt":"urn:btih:a5335034ea6c74b2a2a9542be8596cb638d5a1d9","amp;dn":"Need+to+Feed+%282007%29+DVDRip","amp;tr":["udp%3A%2F%2Ftracker.openbittorrent.com%3A80","udp%3A%2F%2Fopen.demonii.com%3A1337","udp%3A%2F%2Ftracker.coppersurfer.tk%3A6969","udp%3A%2F%2Fexodus.desync.com%3A6969"],"infoHash":"a5335034ea6c74b2a2a9542be8596cb638d5a1d9","infoHashBuffer":{"type":"Buffer","data":[165,51,80,52,234,108,116,178,162,169,84,43,232,89,108,182,56,213,161,217]},"announce":[],"urlList":[]}}